<svg width="30" height="35" viewBox="0 0 30 35" fill="none" xmlns="http://www.w3.org/2000/svg">
<g clip-path="url(#clip0_10_116)">
<path d="M26.7857 2.17505H3.21429C2.3618 2.17505 1.54424 2.51878 0.941442 3.13061C0.338647 3.74245 0 4.57228 0 5.43755L0 29.3625C0 30.2278 0.338647 31.0576 0.941442 31.6695C1.54424 32.2813 2.3618 32.625 3.21429 32.625H12.4051V22.2727H8.18638V17.4H12.4051V13.6862C12.4051 9.46198 14.8828 7.12861 18.6777 7.12861C20.4951 7.12861 22.3955 7.45758 22.3955 7.45758V11.6037H20.3016C18.2384 11.6037 17.5949 12.9032 17.5949 14.2361V17.4H22.2007L21.4641 22.2727H17.5949V32.625H26.7857C27.6382 32.625 28.4558 32.2813 29.0586 31.6695C29.6614 31.0576 30 30.2278 30 29.3625V5.43755C30 4.57228 29.6614 3.74245 29.0586 3.13061C28.4558 2.51878 27.6382 2.17505 26.7857 2.17505Z" fill="#F1F1F1"/>
</g>
<defs>
<clipPath id="clip0_10_116">
<rect width="30" height="34.8" fill="white"/>
</clipPath>
</defs>
</svg>
