<svg width="30" height="35" viewBox="0 0 30 35" fill="none" xmlns="http://www.w3.org/2000/svg">
<g clip-path="url(#clip0_10_110)">
<path d="M15 13.7746C14.2936 13.7749 13.6032 13.9877 13.0159 14.3863C12.4287 14.7848 11.9711 15.3511 11.701 16.0136C11.4308 16.6761 11.3603 17.405 11.4983 18.1082C11.6362 18.8114 11.9765 19.4572 12.4761 19.9641C12.9757 20.471 13.6122 20.8162 14.305 20.9559C14.9978 21.0957 15.7159 21.0238 16.3685 20.7494C17.0211 20.475 17.5789 20.0103 17.9713 19.4141C18.3638 18.8179 18.5732 18.117 18.5732 17.4C18.5725 16.4385 18.1958 15.5166 17.5258 14.8368C16.8558 14.157 15.9473 13.775 15 13.7746ZM23.3511 10.9879C23.1693 10.5201 22.8947 10.0953 22.5444 9.73977C22.1941 9.38422 21.7756 9.10551 21.3147 8.92095C19.9085 8.35749 16.5603 8.48391 15 8.48391C13.4397 8.48391 10.0949 8.35273 8.6846 8.92095C8.22378 9.10551 7.80524 9.38422 7.45494 9.73977C7.10464 10.0953 6.83005 10.5201 6.64821 10.9879C6.09375 12.4152 6.21763 15.8171 6.21763 17.3994C6.21763 18.9817 6.09375 22.3794 6.65089 23.8115C6.83273 24.2793 7.10732 24.7041 7.45761 25.0596C7.80791 25.4152 8.22646 25.6939 8.68728 25.8785C10.0935 26.4419 13.4417 26.3155 15.0027 26.3155C16.5636 26.3155 19.9071 26.4467 21.3174 25.8785C21.7782 25.6939 22.1968 25.4152 22.5471 25.0596C22.8974 24.7041 23.172 24.2793 23.3538 23.8115C23.9129 22.3842 23.7844 18.9824 23.7844 17.4C23.7844 15.8177 23.9129 12.4207 23.3538 10.9886L23.3511 10.9879ZM15 22.9735C13.914 22.9735 12.8523 22.6466 11.9493 22.0342C11.0463 21.4218 10.3425 20.5513 9.92691 19.5329C9.5113 18.5145 9.40256 17.3939 9.61444 16.3127C9.82631 15.2316 10.3493 14.2385 11.1172 13.459C11.8852 12.6796 12.8636 12.1488 13.9287 11.9337C14.9939 11.7187 16.098 11.829 17.1013 12.2509C18.1047 12.6727 18.9623 13.3871 19.5657 14.3036C20.169 15.2202 20.4911 16.2977 20.4911 17.4C20.492 18.1322 20.3505 18.8574 20.0749 19.534C19.7992 20.2106 19.3948 20.8253 18.8847 21.3431C18.3747 21.8608 17.769 22.2713 17.1024 22.5511C16.4358 22.8308 15.7213 22.9744 15 22.9735ZM20.7174 12.8937C20.4639 12.8939 20.216 12.8177 20.0052 12.6748C19.7943 12.5319 19.6299 12.3288 19.5328 12.0911C19.4357 11.8534 19.4102 11.5918 19.4596 11.3394C19.509 11.087 19.631 10.8552 19.8102 10.6731C19.9894 10.4911 20.2178 10.3672 20.4664 10.3169C20.7151 10.2667 20.9728 10.2924 21.2071 10.3908C21.4413 10.4893 21.6415 10.656 21.7824 10.87C21.9233 11.0839 21.9984 11.3355 21.9984 11.5928C21.9991 11.7637 21.9666 11.933 21.9027 12.0911C21.8388 12.2492 21.7447 12.3929 21.626 12.514C21.5072 12.6352 21.366 12.7313 21.2106 12.7969C21.0551 12.8625 20.8884 12.8964 20.7201 12.8964L20.7174 12.8937ZM26.7857 2.17505H3.21429C2.3618 2.17505 1.54424 2.51878 0.941442 3.13061C0.338647 3.74245 0 4.57228 0 5.43755L0 29.3625C0 30.2278 0.338647 31.0576 0.941442 31.6695C1.54424 32.2813 2.3618 32.625 3.21429 32.625H26.7857C27.6382 32.625 28.4558 32.2813 29.0586 31.6695C29.6614 31.0576 30 30.2278 30 29.3625V5.43755C30 4.57228 29.6614 3.74245 29.0586 3.13061C28.4558 2.51878 27.6382 2.17505 26.7857 2.17505ZM25.6393 21.886C25.5529 23.628 25.1612 25.1716 23.9083 26.4399C22.6554 27.7082 21.1359 28.114 19.4217 28.1969C17.6531 28.2982 12.3509 28.2982 10.5824 28.1969C8.86607 28.1092 7.35067 27.7109 6.09576 26.4399C4.84085 25.1689 4.44643 23.6246 4.36473 21.886C4.26496 20.0903 4.26496 14.7078 4.36473 12.9141C4.45112 11.1721 4.83817 9.6285 6.09576 8.36021C7.35335 7.09191 8.87277 6.69089 10.5824 6.60797C12.3509 6.5067 17.6531 6.5067 19.4217 6.60797C21.1379 6.69565 22.658 7.09395 23.9083 8.36496C25.1585 9.63598 25.5576 11.1802 25.6393 12.9223C25.7391 14.7112 25.7391 20.0889 25.6393 21.886Z" fill="#F1F1F1"/>
</g>
<defs>
<clipPath id="clip0_10_110">
<rect width="30" height="34.8" fill="white"/>
</clipPath>
</defs>
</svg>
