<svg width="24" height="14" viewBox="0 0 24 14" fill="none" xmlns="http://www.w3.org/2000/svg">
<path d="M8.656 13L5.776 8.95C5.452 8.986 5.116 9.004 4.768 9.004H1.384V13H0.0520001V0.399999H4.768C6.376 0.399999 7.636 0.783999 8.548 1.552C9.46 2.32 9.916 3.376 9.916 4.72C9.916 5.704 9.664 6.538 9.16 7.222C8.668 7.894 7.96 8.38 7.036 8.68L10.114 13H8.656ZM4.732 7.87C5.98 7.87 6.934 7.594 7.594 7.042C8.254 6.49 8.584 5.716 8.584 4.72C8.584 3.7 8.254 2.92 7.594 2.38C6.934 1.828 5.98 1.552 4.732 1.552H1.384V7.87H4.732ZM18.1358 13.108C16.5038 13.108 15.2318 12.64 14.3198 11.704C13.4078 10.768 12.9518 9.406 12.9518 7.618V0.399999H14.2838V7.564C14.2838 9.028 14.6138 10.12 15.2738 10.84C15.9338 11.56 16.8878 11.92 18.1358 11.92C19.3958 11.92 20.3558 11.56 21.0158 10.84C21.6758 10.12 22.0058 9.028 22.0058 7.564V0.399999H23.3018V7.618C23.3018 9.406 22.8458 10.768 21.9338 11.704C21.0338 12.64 19.7678 13.108 18.1358 13.108Z" fill="#323232"/>
</svg>
