<svg width="30" height="35" viewBox="0 0 30 35" fill="none" xmlns="http://www.w3.org/2000/svg">
<path d="M26.7857 2.17505H3.21429C1.43973 2.17505 0 3.63638 0 5.43755V29.3625C0 31.1637 1.43973 32.625 3.21429 32.625H26.7857C28.5603 32.625 30 31.1637 30 29.3625V5.43755C30 3.63638 28.5603 2.17505 26.7857 2.17505ZM23.5112 12.9685C23.5246 13.1588 23.5246 13.3559 23.5246 13.5462C23.5246 19.4391 19.1049 26.2292 11.029 26.2292C8.53795 26.2292 6.22768 25.4951 4.28571 24.2309C4.64062 24.2717 4.98214 24.2853 5.34375 24.2853C7.39955 24.2853 9.28795 23.5784 10.7946 22.3822C8.86607 22.3414 7.24554 21.0568 6.68973 19.2896C7.36607 19.3915 7.97545 19.3915 8.67188 19.208C6.66295 18.7934 5.15625 16.999 5.15625 14.8308V14.7765C5.73884 15.1095 6.42187 15.3134 7.13839 15.3406C6.536 14.9339 6.04218 14.3821 5.70098 13.7346C5.35979 13.087 5.18185 12.3638 5.18304 11.6295C5.18304 10.8003 5.39732 10.039 5.77902 9.37974C7.94196 12.0849 11.1897 13.8521 14.8326 14.0424C14.2098 11.0178 16.4397 8.56411 19.1183 8.56411C20.3839 8.56411 21.5223 9.10106 22.3259 9.97106C23.317 9.78075 24.2679 9.40692 25.1116 8.89716C24.7835 9.93028 24.0938 10.8003 23.183 11.3508C24.067 11.2557 24.9241 11.0042 25.7143 10.6575C25.1183 11.5479 24.3683 12.3364 23.5112 12.9685Z" fill="#F1F1F1"/>
</svg>
