<svg width="169" height="24" viewBox="0 0 169 24" fill="none" xmlns="http://www.w3.org/2000/svg">
<path d="M7.296 4.824H0.128V0.599998H19.648V4.824H12.48V23H7.296V4.824ZM32.9728 23.384C30.6474 23.384 28.5461 22.8827 26.6688 21.88C24.8128 20.8773 23.3514 19.5013 22.2848 17.752C21.2394 15.9813 20.7168 13.9973 20.7168 11.8C20.7168 9.60267 21.2394 7.62933 22.2848 5.88C23.3514 4.10933 24.8128 2.72267 26.6688 1.72C28.5461 0.717333 30.6474 0.216 32.9728 0.216C35.2981 0.216 37.3888 0.717333 39.2448 1.72C41.1008 2.72267 42.5621 4.10933 43.6288 5.88C44.6954 7.62933 45.2288 9.60267 45.2288 11.8C45.2288 13.9973 44.6954 15.9813 43.6288 17.752C42.5621 19.5013 41.1008 20.8773 39.2448 21.88C37.3888 22.8827 35.2981 23.384 32.9728 23.384ZM32.9728 18.968C34.2954 18.968 35.4901 18.6693 36.5568 18.072C37.6234 17.4533 38.4554 16.6 39.0528 15.512C39.6714 14.424 39.9808 13.1867 39.9808 11.8C39.9808 10.4133 39.6714 9.176 39.0528 8.088C38.4554 7 37.6234 6.15733 36.5568 5.56C35.4901 4.94133 34.2954 4.632 32.9728 4.632C31.6501 4.632 30.4554 4.94133 29.3888 5.56C28.3221 6.15733 27.4794 7 26.8608 8.088C26.2634 9.176 25.9648 10.4133 25.9648 11.8C25.9648 13.1867 26.2634 14.424 26.8608 15.512C27.4794 16.6 28.3221 17.4533 29.3888 18.072C30.4554 18.6693 31.6501 18.968 32.9728 18.968ZM53.4523 4.824H46.2843V0.599998H65.8043V4.824H58.6363V23H53.4523V4.824ZM85.9375 18.84V23H68.5935V0.599998H85.5215V4.76H73.7455V9.624H84.1455V13.656H73.7455V18.84H85.9375ZM110.446 23L110.414 9.56L103.822 20.632H101.486L94.9263 9.848V23H90.0623V0.599998H94.3503L102.734 14.52L110.99 0.599998H115.246L115.31 23H110.446ZM137.073 11.352C138.353 11.7573 139.355 12.44 140.081 13.4C140.806 14.3387 141.169 15.5013 141.169 16.888C141.169 18.8507 140.401 20.3653 138.865 21.432C137.35 22.4773 135.131 23 132.209 23H120.625V0.599998H131.569C134.299 0.599998 136.39 1.12267 137.841 2.168C139.313 3.21333 140.049 4.632 140.049 6.424C140.049 7.512 139.782 8.48267 139.249 9.336C138.737 10.1893 138.011 10.8613 137.073 11.352ZM125.777 4.504V9.784H130.929C132.209 9.784 133.179 9.56 133.841 9.112C134.502 8.664 134.833 8.00267 134.833 7.128C134.833 6.25333 134.502 5.60267 133.841 5.176C133.179 4.728 132.209 4.504 130.929 4.504H125.777ZM131.825 19.096C133.19 19.096 134.214 18.872 134.897 18.424C135.601 17.976 135.953 17.2827 135.953 16.344C135.953 14.488 134.577 13.56 131.825 13.56H125.777V19.096H131.825ZM155.942 23.384C153.616 23.384 151.515 22.8827 149.638 21.88C147.782 20.8773 146.32 19.5013 145.254 17.752C144.208 15.9813 143.686 13.9973 143.686 11.8C143.686 9.60267 144.208 7.62933 145.254 5.88C146.32 4.10933 147.782 2.72267 149.638 1.72C151.515 0.717333 153.616 0.216 155.942 0.216C158.267 0.216 160.358 0.717333 162.214 1.72C164.07 2.72267 165.531 4.10933 166.598 5.88C167.664 7.62933 168.198 9.60267 168.198 11.8C168.198 13.9973 167.664 15.9813 166.598 17.752C165.531 19.5013 164.07 20.8773 162.214 21.88C160.358 22.8827 158.267 23.384 155.942 23.384ZM155.942 18.968C157.264 18.968 158.459 18.6693 159.526 18.072C160.592 17.4533 161.424 16.6 162.022 15.512C162.64 14.424 162.95 13.1867 162.95 11.8C162.95 10.4133 162.64 9.176 162.022 8.088C161.424 7 160.592 6.15733 159.526 5.56C158.459 4.94133 157.264 4.632 155.942 4.632C154.619 4.632 153.424 4.94133 152.358 5.56C151.291 6.15733 150.448 7 149.83 8.088C149.232 9.176 148.934 10.4133 148.934 11.8C148.934 13.1867 149.232 14.424 149.83 15.512C150.448 16.6 151.291 17.4533 152.358 18.072C153.424 18.6693 154.619 18.968 155.942 18.968Z" fill="#323232"/>
</svg>
